PathFileType	4	(X/Y/Z)	C:\Users\Graham\Documents\MATLAB\MOtoNMS_v2_2\MyData\ElaboratedData\S7\22-05-17\staticElaborations\Static1\Static\\Static1.trc
DataRate	CameraRate	NumFrames	NumMarkers	Units	OrigDataRate	DataStartFrame
100	100	8	38	mm	100	2
Frame#	Time	V_Sacral			R_ASIS			L_ASIS			R_Knee_Lat			R_Knee_Med			R_Thigh_Upper			R_Thigh_Front			R_Thigh_Rear			L_Knee_Lat			L_Knee_Med			L_Thigh_Upper			L_Thigh_Front			L_Thigh_Rear			R_Ankle_Lat			R_Ankle_Med			R_Shank_Upper			R_Shank_Front			R_Shank_Rear			L_Ankle_Lat			L_Ankle_Med			L_Shank_Upper			L_Shank_Front			L_Shank_Rear			R_Heel			R_MTP1			R_MTP5			L_Heel			L_MTP1			L_MTP5			Clavicle			R_Acromium			L_Acromium			LAJC			RAJC			LHJC			RHJC			LKJC			RKJC		
		X1	Y1	Z1	X2	Y2	Z2	X3	Y3	Z3	X4	Y4	Z4	X5	Y5	Z5	X6	Y6	Z6	X7	Y7	Z7	X8	Y8	Z8	X9	Y9	Z9	X10	Y10	Z10	X11	Y11	Z11	X12	Y12	Z12	X13	Y13	Z13	X14	Y14	Z14	X15	Y15	Z15	X16	Y16	Z16	X17	Y17	Z17	X18	Y18	Z18	X19	Y19	Z19	X20	Y20	Z20	X21	Y21	Z21	X22	Y22	Z22	X23	Y23	Z23	X24	Y24	Z24	X25	Y25	Z25	X26	Y26	Z26	X27	Y27	Z27	X28	Y28	Z28	X29	Y29	Z29	X30	Y30	Z30	X31	Y31	Z31	X32	Y32	Z32	X33	Y33	Z33	X34	Y34	Z34	X35	Y35	Z35	X36	Y36	Z36	X37	Y37	Z37	X38	Y38	Z38	

95	0.940000	-353.016930	1051.228826	67.149578	-150.436962	1014.410002	193.563029	-194.039712	1019.511999	-76.083045	-204.785542	512.840815	199.826499	-211.863780	514.909540	88.450168	-134.286575	802.113721	143.836068	-159.479779	688.945625	107.003183	-132.597170	685.812538	181.244871	-231.482337	520.019749	-109.396123	-226.698055	506.518427	7.235463	-155.054395	810.145215	-38.913834	-164.876347	693.181705	2.301734	-153.196904	687.899482	-69.552385	-308.659481	80.110591	167.821690	-260.531550	81.886455	90.352991	-180.525474	343.902302	163.368148	-219.803037	241.744830	115.526353	-230.158024	235.767692	190.940903	-297.513070	75.783101	-118.271668	-262.856420	89.277367	-37.317781	-200.523495	336.740913	-94.162473	-226.055833	222.915048	-56.600161	-239.028580	228.934225	-127.380970	-353.547718	34.908893	103.041459	-140.006800	54.415716	167.993092	-164.768212	48.061570	227.699538	-349.767049	33.451816	-65.705412	-123.817423	54.850595	-89.483356	-151.941868	49.266559	-158.861494	-142.526502	1402.450891	55.494678	-218.728172	1471.282610	253.458045	-253.546467	1477.053040	-133.659014	-280.184745	82.530234	-77.794724	-284.595515	80.998523	129.087340	-257.495917	937.560068	-27.713814	-226.387909	933.920092	164.662865	-229.090196	513.269088	-51.080330	-208.324661	513.875177	144.138333	
96	0.950000	-353.117723	1051.314906	66.635682	-150.608852	1014.403423	193.200673	-194.022152	1019.550438	-76.453407	-204.795956	512.861479	199.441874	-211.784481	514.871452	88.049618	-134.408838	802.138001	143.477464	-159.369140	689.034966	106.556891	-132.690594	685.837173	180.887955	-231.573046	520.023518	-109.424876	-226.486949	506.715455	7.237126	-155.115945	810.211262	-39.153595	-165.039630	693.259160	2.033883	-153.233120	687.943630	-69.756790	-308.645203	80.127364	167.754322	-260.507352	81.847135	90.289617	-180.495211	343.901513	163.089704	-219.766946	241.716565	115.315693	-230.131943	235.792213	190.743203	-297.384283	75.841902	-117.712794	-262.343628	89.195823	-36.892059	-200.415538	336.826633	-94.127305	-225.699468	222.987112	-56.422897	-238.873933	228.935722	-127.125644	-353.586626	34.902935	103.014303	-140.000863	54.410982	167.964596	-164.761436	48.069903	227.675001	-349.464934	33.710882	-64.898132	-123.617105	54.247364	-89.815808	-152.060879	48.825919	-159.070471	-142.568075	1402.522702	55.140924	-218.797635	1471.398846	253.061163	-253.553307	1477.122733	-134.054334	-279.863956	82.518862	-77.302427	-284.576278	80.987250	129.021970	-257.547392	937.623946	-28.139076	-226.574363	933.951831	164.244444	-229.029997	513.369487	-51.093875	-208.290218	513.866466	143.745746	
97	0.960000	-353.208309	1051.433625	66.028012	-150.769338	1014.385285	192.748166	-193.992615	1019.608743	-76.909277	-204.785344	512.885356	198.972291	-211.699009	514.826320	87.566629	-134.545353	802.168954	143.005027	-159.326765	689.110262	106.005968	-132.775845	685.868079	180.415220	-231.615599	520.035731	-109.451240	-226.156831	506.966946	7.233304	-155.204313	810.332302	-39.458342	-165.192412	693.398718	1.712787	-153.235276	688.036980	-70.007344	-308.625043	80.150286	167.676730	-260.479929	81.800107	90.214309	-180.453706	343.899786	162.744191	-219.729799	241.683102	115.058904	-230.093269	235.823267	190.499706	-297.238837	75.906748	-116.924717	-261.732338	89.151461	-36.281194	-200.262349	336.925746	-94.047069	-225.267393	223.087613	-56.141813	-238.693986	228.938108	-126.754280	-353.621417	34.890468	102.982101	-139.993351	54.405760	167.928224	-164.752552	48.082992	227.642413	-349.074823	33.984940	-63.783553	-123.375358	53.701664	-90.115290	-152.223998	48.399537	-159.195659	-142.585679	1402.604232	54.737701	-218.886647	1471.507790	252.607072	-253.513513	1477.192704	-134.516479	-279.485587	82.529104	-76.602955	-284.552486	80.975196	128.945519	-257.600790	937.714581	-28.657667	-226.763118	933.987901	163.729591	-228.886215	513.501339	-51.108968	-208.242176	513.855838	143.269460	
98	0.970000	-353.290929	1051.584100	65.330252	-150.919600	1014.360724	192.199559	-193.958031	1019.693023	-77.457027	-204.760104	512.915420	198.418843	-211.617945	514.776351	87.002980	-134.695860	802.207893	142.414360	-159.356062	689.169527	105.353484	-132.857127	685.906939	179.822196	-231.621189	520.056845	-109.472935	-225.706556	507.265526	7.223770	-155.317667	810.512131	-39.841739	-165.317175	693.604137	1.335872	-153.205613	688.183498	-70.314560	-308.599392	80.179776	167.590967	-260.450163	81.746833	90.129916	-180.406883	343.900755	162.334313	-219.696604	241.646915	114.758063	-230.048081	235.863927	190.211977	-297.080826	75.977352	-115.890013	-261.015627	89.146157	-35.473311	-200.068161	337.037897	-93.922510	-224.755265	223.217448	-55.752714	-238.495461	228.941044	-126.263697	-353.643825	34.871399	102.947077	-139.984001	54.401165	167.884790	-164.741565	48.100020	227.601576	-348.588545	34.268107	-62.336546	-123.092044	53.233430	-90.392328	-152.444908	48.002893	-159.240647	-142.579545	1402.699239	54.281418	-218.986288	1471.613929	252.095882	-253.432702	1477.271657	-135.042953	-279.048226	82.561755	-75.681662	-284.524778	80.963304	128.860442	-257.658781	937.835048	-29.275293	-226.952753	934.030687	163.112827	-228.663873	513.661185	-51.124582	-208.189025	513.845886	142.710912	
99	0.980000	-353.365986	1051.763087	64.545244	-151.060127	1014.336168	191.551392	-193.921732	1019.806106	-78.101316	-204.730179	512.955087	197.787107	-211.552569	514.724199	86.364097	-134.857350	802.254865	141.707688	-159.456515	689.211201	104.606929	-132.939592	685.954314	179.111714	-231.611321	520.084761	-109.491490	-225.146459	507.598666	7.205025	-155.449745	810.746377	-40.315953	-165.401109	693.870586	0.899747	-153.151757	688.379219	-70.689320	-308.569318	80.215702	167.499870	-260.419228	81.689528	90.040389	-180.362404	343.908574	161.867018	-219.672760	241.611011	114.417958	-230.005039	235.917383	189.884344	-296.912765	76.051287	-114.614060	-260.193209	89.176628	-34.475502	-199.843380	337.160877	-93.764205	-224.163445	223.373712	-55.265668	-238.289309	228.942394	-125.663403	-353.645074	34.845929	102.912138	-139.972797	54.398452	167.835727	-164.728884	48.120114	227.553018	-348.004597	34.554666	-60.564120	-122.769152	52.849954	-90.658534	-152.728549	47.642397	-159.215401	-142.550309	1402.810867	53.768363	-219.088306	1471.721909	251.526634	-253.315723	1477.368831	-135.631614	-278.552987	82.613958	-74.544781	-284.494273	80.952615	128.770130	-257.720298	937.985314	-29.995317	-227.140185	934.082724	162.391564	-228.378890	513.841713	-51.143233	-208.141374	513.839643	142.075602	
100	0.990000	-353.432304	1051.965166	63.675533	-151.190556	1014.318433	190.803052	-193.883915	1019.946710	-78.844492	-204.707582	513.007705	197.087069	-211.513522	514.672577	85.659000	-135.024504	802.308517	140.893952	-159.623724	689.234009	103.778235	-133.028577	686.009488	178.294121	-231.613687	520.115057	-109.512698	-224.496910	507.950027	7.170046	-155.591707	811.022945	-40.890634	-165.436867	694.185297	0.400384	-153.085492	688.612854	-71.141950	-308.536503	80.257334	167.406880	-260.388558	81.631004	89.950456	-180.328685	343.927326	161.353012	-219.663404	241.578575	114.045821	-229.974214	235.986471	189.523667	-296.736401	76.124346	-113.127733	-259.274724	89.235220	-33.315489	-199.603318	337.290527	-93.591519	-223.499047	223.549838	-54.704797	-238.089442	228.938622	-124.976235	-353.617889	34.814661	102.880461	-139.960000	54.398864	167.782961	-164.715334	48.142472	227.497988	-347.330598	34.838646	-58.509409	-122.412002	52.547848	-90.924046	-153.070113	47.317225	-159.134769	-142.499085	1402.940767	53.194956	-219.185888	1471.835388	250.897505	-253.166316	1477.492650	-136.280816	-278.005563	82.679783	-73.221611	-284.462530	80.944169	128.678668	-257.781404	938.161834	-30.817970	-227.321092	934.146243	161.566716	-228.055298	514.032542	-51.171326	-208.110552	513.840141	141.373034	
101	1.000000	-353.487503	1052.183183	62.724062	-151.309759	1014.313783	189.956856	-193.842408	1020.109275	-79.686206	-204.704348	513.076013	196.332407	-211.509305	514.623863	84.899803	-135.190454	802.366239	139.987991	-159.849349	689.237034	102.883114	-133.128693	686.070572	177.386477	-231.657013	520.141616	-109.546691	-223.786929	508.301059	7.108477	-155.733804	811.323517	-41.572142	-165.422629	694.529235	-0.166422	-153.020857	688.867361	-71.681179	-308.503103	80.303381	167.315780	-260.359783	81.574451	89.865175	-180.313631	343.960379	160.805683	-219.672713	241.552557	113.650723	-229.965540	236.073198	189.138727	-296.553813	76.190992	-111.486915	-258.281623	89.311462	-32.040778	-199.366229	337.420938	-93.430026	-222.777518	223.736259	-54.106031	-237.910521	228.925377	-124.237455	-353.558462	34.778642	102.854980	-139.946157	54.403480	167.728726	-164.702126	48.166500	227.438351	-346.584492	35.113502	-56.250378	-122.029966	52.316170	-91.195901	-153.455733	47.021639	-159.016983	-142.427488	1403.088454	52.557926	-219.274210	1471.956046	250.206133	-252.987071	1477.649485	-136.989479	-277.417718	82.751227	-71.763846	-284.431443	80.938916	128.590477	-257.836410	938.357689	-31.739999	-227.490542	934.222766	160.642863	-227.721971	514.221338	-51.219107	-208.106827	513.849938	140.616105	
102	1.010000	-353.528451	1052.408878	61.694802	-151.416158	1014.327095	189.017905	-193.793543	1020.284457	-80.623263	-204.730287	513.161638	195.539252	-211.544897	514.579758	84.100806	-135.347740	802.424548	139.008932	-160.121048	689.220027	101.939744	-133.242942	686.134842	176.410846	-231.765979	520.157495	-109.607591	-223.052996	508.632644	7.007190	-155.866684	811.625785	-42.362944	-165.361806	694.879452	-0.804390	-152.971943	689.122161	-72.313058	-308.471546	80.352130	167.230361	-260.334653	81.523147	89.789441	-180.323314	344.009782	160.239651	-219.703277	241.535241	113.242732	-229.987217	236.178353	188.739364	-296.368495	76.244803	-109.768514	-257.247028	89.394050	-30.715171	-199.151099	337.544891	-93.307974	-222.023228	223.921469	-53.513176	-237.765413	228.898106	-123.492198	-353.467817	34.739306	102.837897	-139.932059	54.413081	167.675339	-164.690784	48.191948	227.376382	-345.794087	35.372013	-53.892967	-121.636469	52.139960	-91.477628	-153.864766	46.747199	-158.882358	-142.337617	1403.250997	51.854452	-219.350732	1472.082906	249.450041	-252.779659	1477.842689	-137.757067	-276.807761	82.819426	-70.241842	-284.403099	80.937639	128.509901	-257.879010	938.563227	-32.754745	-227.643732	934.312788	159.627955	-227.409488	514.395070	-51.300201	-208.137592	513.870698	139.820029	
